<?xml version="1.0" standalone="no"?>
<!DOCTYPE svg PUBLIC "-//W3C//DTD SVG 20010904//EN"
 "http://www.w3.org/TR/2001/REC-SVG-20010904/DTD/svg10.dtd">
<svg version="1.0" xmlns="http://www.w3.org/2000/svg"
 width="128.000000pt" height="128.000000pt" viewBox="0 0 128.000000 128.000000"
 preserveAspectRatio="xMidYMid meet">
<metadata>
Created by potrace 1.10, written by Peter Selinger 2001-2011
</metadata>
<g transform="translate(0.000000,128.000000) scale(0.100000,-0.100000)"
fill="#000000" stroke="none">
<path d="M548 1094 c-128 -33 -219 -144 -217 -267 1 -84 23 -126 105 -197 16
-14 83 -48 149 -74 127 -51 155 -69 155 -96 0 -73 -163 -66 -271 11 -17 12
-36 18 -46 14 -10 -3 -42 -35 -71 -70 -65 -78 -63 -92 18 -144 161 -104 401
-101 520 6 66 59 93 120 92 204 -1 127 -60 193 -236 264 -144 59 -171 75 -171
105 0 19 7 26 35 33 59 15 134 4 179 -27 22 -16 47 -26 55 -23 18 7 116 124
116 139 0 5 -14 23 -32 40 -88 82 -247 117 -380 82z m238 -29 c38 -11 154 -80
154 -92 0 -3 -21 -30 -47 -61 -26 -32 -48 -59 -50 -61 -1 -2 -15 6 -30 17 -72
51 -183 64 -240 26 -26 -16 -32 -74 -10 -92 6 -5 74 -35 149 -67 201 -84 248
-132 248 -254 0 -72 -15 -113 -60 -165 -110 -125 -365 -133 -533 -17 -26 18
-47 34 -47 37 0 5 25 37 102 128 4 6 15 3 26 -7 28 -26 125 -66 173 -73 93
-12 165 40 138 100 -13 27 -21 32 -174 97 -149 63 -193 98 -221 177 -40 113
26 249 145 300 74 31 187 34 277 7z"/>
</g>
</svg>
